<mxfile host="app.diagrams.net" modified="2024-04-01T11:14:23.680Z" agent="Mozilla/5.0 (Windows NT 10.0; Win64; x64) AppleWebKit/537.36 (KHTML, like Gecko) Chrome/123.0.0.0 Safari/537.36" etag="3vIkoKGjn7s0WE2iPKM8" version="24.2.0" type="device">
  <diagram name="Page-1" id="DF0YQekvowBtBT2k6kdl">
    <mxGraphModel dx="1885" dy="1611" grid="1" gridSize="10" guides="1" tooltips="1" connect="1" arrows="1" fold="1" page="1" pageScale="1" pageWidth="850" pageHeight="1100" math="0" shadow="0">
      <root>
        <mxCell id="0" />
        <mxCell id="1" parent="0" />
        <mxCell id="AsRyf3siZB244Y5WGXN8-1" value="Resident(USER)" style="shape=umlActor;verticalLabelPosition=bottom;verticalAlign=top;html=1;outlineConnect=0;fillColor=#BD48F8;strokeColor=#000000;" parent="1" vertex="1">
          <mxGeometry x="-70" y="70" width="90" height="170" as="geometry" />
        </mxCell>
        <mxCell id="AsRyf3siZB244Y5WGXN8-2" value="trigger a fall test" style="ellipse;whiteSpace=wrap;html=1;" parent="1" vertex="1">
          <mxGeometry x="260" y="530" width="110" height="60" as="geometry" />
        </mxCell>
        <mxCell id="AsRyf3siZB244Y5WGXN8-3" value="Move around within the camera&#39;s view" style="ellipse;whiteSpace=wrap;html=1;" parent="1" vertex="1">
          <mxGeometry x="340" y="-40" width="120" height="70" as="geometry" />
        </mxCell>
        <mxCell id="AsRyf3siZB244Y5WGXN8-5" value="Emergency Nb 1" style="ellipse;whiteSpace=wrap;html=1;" parent="1" vertex="1">
          <mxGeometry x="700" width="120" height="55" as="geometry" />
        </mxCell>
        <mxCell id="AsRyf3siZB244Y5WGXN8-6" value="Emergency Nb 2" style="ellipse;whiteSpace=wrap;html=1;" parent="1" vertex="1">
          <mxGeometry x="720" y="157.5" width="120" height="55" as="geometry" />
        </mxCell>
        <mxCell id="AsRyf3siZB244Y5WGXN8-9" value="" style="endArrow=classic;html=1;rounded=0;entryX=-0.008;entryY=0.414;entryDx=0;entryDy=0;entryPerimeter=0;exitX=1;exitY=0.3333333333333333;exitDx=0;exitDy=0;exitPerimeter=0;" parent="1" source="AsRyf3siZB244Y5WGXN8-1" target="AsRyf3siZB244Y5WGXN8-3" edge="1">
          <mxGeometry width="50" height="50" relative="1" as="geometry">
            <mxPoint x="130" y="151.35135135135135" as="sourcePoint" />
            <mxPoint x="270" y="140" as="targetPoint" />
          </mxGeometry>
        </mxCell>
        <mxCell id="AsRyf3siZB244Y5WGXN8-15" value="" style="endArrow=classic;dashed=1;html=1;dashPattern=1 3;strokeWidth=2;rounded=0;" parent="1" edge="1">
          <mxGeometry width="50" height="50" relative="1" as="geometry">
            <mxPoint x="440" y="170" as="sourcePoint" />
            <mxPoint x="440" y="170" as="targetPoint" />
          </mxGeometry>
        </mxCell>
        <mxCell id="AsRyf3siZB244Y5WGXN8-17" value="" style="endArrow=classic;dashed=1;html=1;dashPattern=1 3;strokeWidth=2;rounded=0;entryX=0.092;entryY=0.255;entryDx=0;entryDy=0;entryPerimeter=0;exitX=0.953;exitY=0.768;exitDx=0;exitDy=0;exitPerimeter=0;" parent="1" source="AsRyf3siZB244Y5WGXN8-4" target="AsRyf3siZB244Y5WGXN8-6" edge="1">
          <mxGeometry width="50" height="50" relative="1" as="geometry">
            <mxPoint x="400" y="230" as="sourcePoint" />
            <mxPoint x="450" y="180" as="targetPoint" />
          </mxGeometry>
        </mxCell>
        <mxCell id="AsRyf3siZB244Y5WGXN8-20" value="&amp;lt;&amp;lt;includes&amp;gt;&amp;gt;" style="edgeLabel;html=1;align=center;verticalAlign=middle;resizable=0;points=[];" parent="AsRyf3siZB244Y5WGXN8-17" vertex="1" connectable="0">
          <mxGeometry x="-0.0993" relative="1" as="geometry">
            <mxPoint as="offset" />
          </mxGeometry>
        </mxCell>
        <mxCell id="AsRyf3siZB244Y5WGXN8-18" value="" style="endArrow=classic;dashed=1;html=1;dashPattern=1 3;strokeWidth=2;rounded=0;exitX=0.983;exitY=0.63;exitDx=0;exitDy=0;exitPerimeter=0;" parent="1" source="AsRyf3siZB244Y5WGXN8-4" target="AsRyf3siZB244Y5WGXN8-5" edge="1">
          <mxGeometry width="50" height="50" relative="1" as="geometry">
            <mxPoint x="390" y="220" as="sourcePoint" />
            <mxPoint x="401.42857142857133" y="200" as="targetPoint" />
          </mxGeometry>
        </mxCell>
        <mxCell id="AsRyf3siZB244Y5WGXN8-19" value="&amp;lt;&amp;lt;includes&amp;gt;&amp;gt;" style="edgeLabel;html=1;align=center;verticalAlign=middle;resizable=0;points=[];" parent="AsRyf3siZB244Y5WGXN8-18" vertex="1" connectable="0">
          <mxGeometry x="-0.0281" y="5" relative="1" as="geometry">
            <mxPoint y="1" as="offset" />
          </mxGeometry>
        </mxCell>
        <mxCell id="AsRyf3siZB244Y5WGXN8-25" value="Select Response Time" style="ellipse;whiteSpace=wrap;html=1;" parent="1" vertex="1">
          <mxGeometry x="440" y="380" width="120" height="60" as="geometry" />
        </mxCell>
        <mxCell id="AsRyf3siZB244Y5WGXN8-27" value="" style="endArrow=classic;html=1;rounded=0;exitX=1;exitY=0.3333333333333333;exitDx=0;exitDy=0;exitPerimeter=0;entryX=0;entryY=0;entryDx=0;entryDy=0;" parent="1" source="AsRyf3siZB244Y5WGXN8-1" target="AsRyf3siZB244Y5WGXN8-2" edge="1">
          <mxGeometry width="50" height="50" relative="1" as="geometry">
            <mxPoint x="123" y="150" as="sourcePoint" />
            <mxPoint x="280" y="402" as="targetPoint" />
          </mxGeometry>
        </mxCell>
        <mxCell id="AsRyf3siZB244Y5WGXN8-4" value="Select Emergency Numbers" style="ellipse;whiteSpace=wrap;html=1;" parent="1" vertex="1">
          <mxGeometry x="460" y="47.5" width="120" height="60" as="geometry" />
        </mxCell>
        <mxCell id="AsRyf3siZB244Y5WGXN8-21" value="Select Ringtone Alert" style="ellipse;whiteSpace=wrap;html=1;" parent="1" vertex="1">
          <mxGeometry x="460" y="170" width="120" height="60" as="geometry" />
        </mxCell>
        <mxCell id="AsRyf3siZB244Y5WGXN8-36" value="" style="endArrow=classic;dashed=1;html=1;dashPattern=1 3;strokeWidth=2;rounded=0;entryX=1;entryY=0;entryDx=0;entryDy=0;exitX=0.382;exitY=0.975;exitDx=0;exitDy=0;exitPerimeter=0;" parent="1" source="AsRyf3siZB244Y5WGXN8-39" target="AsRyf3siZB244Y5WGXN8-25" edge="1">
          <mxGeometry width="50" height="50" relative="1" as="geometry">
            <mxPoint x="670" y="370" as="sourcePoint" />
            <mxPoint x="707" y="338" as="targetPoint" />
          </mxGeometry>
        </mxCell>
        <mxCell id="AsRyf3siZB244Y5WGXN8-37" value="&amp;lt;&amp;lt;extends&amp;gt;&amp;gt;" style="edgeLabel;html=1;align=center;verticalAlign=middle;resizable=0;points=[];" parent="AsRyf3siZB244Y5WGXN8-36" vertex="1" connectable="0">
          <mxGeometry x="-0.0993" relative="1" as="geometry">
            <mxPoint as="offset" />
          </mxGeometry>
        </mxCell>
        <mxCell id="AsRyf3siZB244Y5WGXN8-39" value="30 seconds" style="ellipse;whiteSpace=wrap;html=1;" parent="1" vertex="1">
          <mxGeometry x="620" y="310" width="90" height="40" as="geometry" />
        </mxCell>
        <mxCell id="AsRyf3siZB244Y5WGXN8-40" value="60 seconds" style="ellipse;whiteSpace=wrap;html=1;" parent="1" vertex="1">
          <mxGeometry x="730" y="350" width="90" height="40" as="geometry" />
        </mxCell>
        <mxCell id="AsRyf3siZB244Y5WGXN8-41" value="" style="endArrow=classic;dashed=1;html=1;dashPattern=1 3;strokeWidth=2;rounded=0;exitX=0;exitY=0.5;exitDx=0;exitDy=0;entryX=0.919;entryY=0.277;entryDx=0;entryDy=0;entryPerimeter=0;" parent="1" source="AsRyf3siZB244Y5WGXN8-40" target="AsRyf3siZB244Y5WGXN8-25" edge="1">
          <mxGeometry width="50" height="50" relative="1" as="geometry">
            <mxPoint x="664" y="359" as="sourcePoint" />
            <mxPoint x="639" y="456" as="targetPoint" />
          </mxGeometry>
        </mxCell>
        <mxCell id="AsRyf3siZB244Y5WGXN8-42" value="&amp;lt;&amp;lt;extends&amp;gt;&amp;gt;" style="edgeLabel;html=1;align=center;verticalAlign=middle;resizable=0;points=[];" parent="AsRyf3siZB244Y5WGXN8-41" vertex="1" connectable="0">
          <mxGeometry x="-0.0993" relative="1" as="geometry">
            <mxPoint as="offset" />
          </mxGeometry>
        </mxCell>
        <mxCell id="AsRyf3siZB244Y5WGXN8-43" value="" style="endArrow=classic;dashed=1;html=1;dashPattern=1 3;strokeWidth=2;rounded=0;entryX=0.949;entryY=0.787;entryDx=0;entryDy=0;entryPerimeter=0;exitX=0;exitY=0.5;exitDx=0;exitDy=0;" parent="1" source="AsRyf3siZB244Y5WGXN8-45" target="AsRyf3siZB244Y5WGXN8-25" edge="1">
          <mxGeometry width="50" height="50" relative="1" as="geometry">
            <mxPoint x="750" y="480" as="sourcePoint" />
            <mxPoint x="673" y="479" as="targetPoint" />
          </mxGeometry>
        </mxCell>
        <mxCell id="AsRyf3siZB244Y5WGXN8-44" value="&amp;lt;&amp;lt;extends&amp;gt;&amp;gt;" style="edgeLabel;html=1;align=center;verticalAlign=middle;resizable=0;points=[];" parent="AsRyf3siZB244Y5WGXN8-43" vertex="1" connectable="0">
          <mxGeometry x="-0.0993" relative="1" as="geometry">
            <mxPoint as="offset" />
          </mxGeometry>
        </mxCell>
        <mxCell id="AsRyf3siZB244Y5WGXN8-45" value="120 seconds" style="ellipse;whiteSpace=wrap;html=1;" parent="1" vertex="1">
          <mxGeometry x="750" y="430" width="90" height="40" as="geometry" />
        </mxCell>
        <mxCell id="AsRyf3siZB244Y5WGXN8-46" value="Camera" style="shape=umlActor;verticalLabelPosition=bottom;verticalAlign=top;html=1;outlineConnect=0;fillColor=#f8cecc;strokeColor=#1A1A1A;" parent="1" vertex="1">
          <mxGeometry x="30" y="690" width="110" height="210" as="geometry" />
        </mxCell>
        <mxCell id="AsRyf3siZB244Y5WGXN8-50" value="" style="endArrow=classic;html=1;rounded=0;exitX=1;exitY=0.3333333333333333;exitDx=0;exitDy=0;exitPerimeter=0;entryX=0.437;entryY=0.992;entryDx=0;entryDy=0;entryPerimeter=0;" parent="1" source="AsRyf3siZB244Y5WGXN8-1" target="AsRyf3siZB244Y5WGXN8-51" edge="1">
          <mxGeometry width="50" height="50" relative="1" as="geometry">
            <mxPoint x="140" y="157" as="sourcePoint" />
            <mxPoint x="150" y="-77" as="targetPoint" />
          </mxGeometry>
        </mxCell>
        <mxCell id="AsRyf3siZB244Y5WGXN8-51" value="Read instructions" style="ellipse;whiteSpace=wrap;html=1;" parent="1" vertex="1">
          <mxGeometry x="80" y="-130" width="130" height="50" as="geometry" />
        </mxCell>
        <mxCell id="AsRyf3siZB244Y5WGXN8-52" value="" style="endArrow=classic;html=1;rounded=0;exitX=1;exitY=0.3333333333333333;exitDx=0;exitDy=0;exitPerimeter=0;entryX=0;entryY=0.5;entryDx=0;entryDy=0;" parent="1" source="AsRyf3siZB244Y5WGXN8-46" target="AsRyf3siZB244Y5WGXN8-53" edge="1">
          <mxGeometry width="50" height="50" relative="1" as="geometry">
            <mxPoint x="279" y="650" as="sourcePoint" />
            <mxPoint x="270" y="870" as="targetPoint" />
          </mxGeometry>
        </mxCell>
        <mxCell id="AsRyf3siZB244Y5WGXN8-53" value="Captures a live video stream" style="ellipse;whiteSpace=wrap;html=1;" parent="1" vertex="1">
          <mxGeometry x="275" y="810" width="110" height="60" as="geometry" />
        </mxCell>
        <mxCell id="AsRyf3siZB244Y5WGXN8-54" value="Sends the stream to the system" style="ellipse;whiteSpace=wrap;html=1;" parent="1" vertex="1">
          <mxGeometry x="300" y="680" width="120" height="70" as="geometry" />
        </mxCell>
        <mxCell id="AsRyf3siZB244Y5WGXN8-55" value="" style="endArrow=classic;html=1;rounded=0;exitX=1;exitY=0.3333333333333333;exitDx=0;exitDy=0;exitPerimeter=0;entryX=0.012;entryY=0.728;entryDx=0;entryDy=0;entryPerimeter=0;" parent="1" source="AsRyf3siZB244Y5WGXN8-46" target="AsRyf3siZB244Y5WGXN8-54" edge="1">
          <mxGeometry width="50" height="50" relative="1" as="geometry">
            <mxPoint x="150" y="770" as="sourcePoint" />
            <mxPoint x="285" y="850" as="targetPoint" />
          </mxGeometry>
        </mxCell>
        <mxCell id="AsRyf3siZB244Y5WGXN8-56" value="" style="endArrow=classic;dashed=1;html=1;dashPattern=1 3;strokeWidth=2;rounded=0;entryX=0.5;entryY=0;entryDx=0;entryDy=0;exitX=0.5;exitY=1;exitDx=0;exitDy=0;" parent="1" source="AsRyf3siZB244Y5WGXN8-54" target="AsRyf3siZB244Y5WGXN8-53" edge="1">
          <mxGeometry width="50" height="50" relative="1" as="geometry">
            <mxPoint x="325" y="540" as="sourcePoint" />
            <mxPoint x="620" y="520" as="targetPoint" />
          </mxGeometry>
        </mxCell>
        <mxCell id="AsRyf3siZB244Y5WGXN8-57" value="&amp;lt;&amp;lt;includes&amp;gt;&amp;gt;" style="edgeLabel;html=1;align=center;verticalAlign=middle;resizable=0;points=[];" parent="AsRyf3siZB244Y5WGXN8-56" vertex="1" connectable="0">
          <mxGeometry x="-0.0993" relative="1" as="geometry">
            <mxPoint as="offset" />
          </mxGeometry>
        </mxCell>
        <mxCell id="AsRyf3siZB244Y5WGXN8-58" value="E&lt;span style=&quot;background-color: initial;&quot;&gt;mergency contact&lt;/span&gt;" style="shape=umlActor;verticalLabelPosition=bottom;verticalAlign=top;html=1;outlineConnect=0;fillColor=#CC0000;strokeColor=#000000;fontColor=#080808;" parent="1" vertex="1">
          <mxGeometry x="30" y="1030" width="110" height="180" as="geometry" />
        </mxCell>
        <mxCell id="AsRyf3siZB244Y5WGXN8-60" value="" style="endArrow=classic;html=1;rounded=0;exitX=1;exitY=0.3333333333333333;exitDx=0;exitDy=0;exitPerimeter=0;entryX=0;entryY=0.5;entryDx=0;entryDy=0;" parent="1" source="AsRyf3siZB244Y5WGXN8-58" target="AsRyf3siZB244Y5WGXN8-61" edge="1">
          <mxGeometry width="50" height="50" relative="1" as="geometry">
            <mxPoint x="135" y="1040" as="sourcePoint" />
            <mxPoint x="270" y="1120" as="targetPoint" />
          </mxGeometry>
        </mxCell>
        <mxCell id="AsRyf3siZB244Y5WGXN8-61" value="Receives notification about a fall" style="ellipse;whiteSpace=wrap;html=1;" parent="1" vertex="1">
          <mxGeometry x="270" y="1070" width="110" height="80" as="geometry" />
        </mxCell>
        <mxCell id="AsRyf3siZB244Y5WGXN8-62" value="" style="endArrow=classic;dashed=1;html=1;dashPattern=1 3;strokeWidth=2;rounded=0;entryX=0.066;entryY=0.69;entryDx=0;entryDy=0;entryPerimeter=0;" parent="1" target="AsRyf3siZB244Y5WGXN8-64" edge="1">
          <mxGeometry width="50" height="50" relative="1" as="geometry">
            <mxPoint x="364" y="1082" as="sourcePoint" />
            <mxPoint x="460" y="1030" as="targetPoint" />
          </mxGeometry>
        </mxCell>
        <mxCell id="AsRyf3siZB244Y5WGXN8-63" value="&amp;lt;&amp;lt;includes&amp;gt;&amp;gt;" style="edgeLabel;html=1;align=center;verticalAlign=middle;resizable=0;points=[];" parent="AsRyf3siZB244Y5WGXN8-62" vertex="1" connectable="0">
          <mxGeometry x="-0.0993" relative="1" as="geometry">
            <mxPoint as="offset" />
          </mxGeometry>
        </mxCell>
        <mxCell id="AsRyf3siZB244Y5WGXN8-64" value="SMS message" style="ellipse;whiteSpace=wrap;html=1;" parent="1" vertex="1">
          <mxGeometry x="440" y="990" width="100" height="50" as="geometry" />
        </mxCell>
        <mxCell id="AsRyf3siZB244Y5WGXN8-67" value="Phone Call" style="ellipse;whiteSpace=wrap;html=1;" parent="1" vertex="1">
          <mxGeometry x="490" y="1060" width="100" height="50" as="geometry" />
        </mxCell>
        <mxCell id="rZTTeqGJp5V0h66PrG5v-1" value="Configure application settings" style="ellipse;whiteSpace=wrap;html=1;" vertex="1" parent="1">
          <mxGeometry x="180" y="107.5" width="130" height="50" as="geometry" />
        </mxCell>
        <mxCell id="rZTTeqGJp5V0h66PrG5v-2" value="" style="endArrow=classic;html=1;rounded=0;exitX=1;exitY=0.3333333333333333;exitDx=0;exitDy=0;exitPerimeter=0;" edge="1" parent="1" source="AsRyf3siZB244Y5WGXN8-1" target="rZTTeqGJp5V0h66PrG5v-1">
          <mxGeometry width="50" height="50" relative="1" as="geometry">
            <mxPoint x="50" y="137" as="sourcePoint" />
            <mxPoint x="349" y="-1" as="targetPoint" />
          </mxGeometry>
        </mxCell>
        <mxCell id="rZTTeqGJp5V0h66PrG5v-3" value="" style="endArrow=classic;dashed=1;html=1;dashPattern=1 3;strokeWidth=2;rounded=0;exitX=1;exitY=0.5;exitDx=0;exitDy=0;" edge="1" parent="1" source="rZTTeqGJp5V0h66PrG5v-1" target="AsRyf3siZB244Y5WGXN8-4">
          <mxGeometry width="50" height="50" relative="1" as="geometry">
            <mxPoint x="484" y="154" as="sourcePoint" />
            <mxPoint x="661" y="182" as="targetPoint" />
          </mxGeometry>
        </mxCell>
        <mxCell id="rZTTeqGJp5V0h66PrG5v-4" value="&amp;lt;&amp;lt;includes&amp;gt;&amp;gt;" style="edgeLabel;html=1;align=center;verticalAlign=middle;resizable=0;points=[];" vertex="1" connectable="0" parent="rZTTeqGJp5V0h66PrG5v-3">
          <mxGeometry x="-0.0993" relative="1" as="geometry">
            <mxPoint as="offset" />
          </mxGeometry>
        </mxCell>
        <mxCell id="rZTTeqGJp5V0h66PrG5v-5" value="" style="endArrow=classic;dashed=1;html=1;dashPattern=1 3;strokeWidth=2;rounded=0;entryX=0;entryY=0;entryDx=0;entryDy=0;exitX=1;exitY=0.5;exitDx=0;exitDy=0;" edge="1" parent="1" source="rZTTeqGJp5V0h66PrG5v-1" target="AsRyf3siZB244Y5WGXN8-21">
          <mxGeometry width="50" height="50" relative="1" as="geometry">
            <mxPoint x="494" y="164" as="sourcePoint" />
            <mxPoint x="671" y="192" as="targetPoint" />
          </mxGeometry>
        </mxCell>
        <mxCell id="rZTTeqGJp5V0h66PrG5v-6" value="&amp;lt;&amp;lt;includes&amp;gt;&amp;gt;" style="edgeLabel;html=1;align=center;verticalAlign=middle;resizable=0;points=[];" vertex="1" connectable="0" parent="rZTTeqGJp5V0h66PrG5v-5">
          <mxGeometry x="-0.0993" relative="1" as="geometry">
            <mxPoint as="offset" />
          </mxGeometry>
        </mxCell>
        <mxCell id="rZTTeqGJp5V0h66PrG5v-7" value="" style="endArrow=classic;dashed=1;html=1;dashPattern=1 3;strokeWidth=2;rounded=0;exitX=1.008;exitY=0.65;exitDx=0;exitDy=0;exitPerimeter=0;entryX=0.208;entryY=0.083;entryDx=0;entryDy=0;entryPerimeter=0;" edge="1" parent="1" source="rZTTeqGJp5V0h66PrG5v-1" target="AsRyf3siZB244Y5WGXN8-25">
          <mxGeometry width="50" height="50" relative="1" as="geometry">
            <mxPoint x="330" y="180" as="sourcePoint" />
            <mxPoint x="440" y="351" as="targetPoint" />
          </mxGeometry>
        </mxCell>
        <mxCell id="rZTTeqGJp5V0h66PrG5v-8" value="&amp;lt;&amp;lt;includes&amp;gt;&amp;gt;" style="edgeLabel;html=1;align=center;verticalAlign=middle;resizable=0;points=[];" vertex="1" connectable="0" parent="rZTTeqGJp5V0h66PrG5v-7">
          <mxGeometry x="-0.0993" relative="1" as="geometry">
            <mxPoint as="offset" />
          </mxGeometry>
        </mxCell>
        <mxCell id="rZTTeqGJp5V0h66PrG5v-9" value="Save Settings" style="ellipse;whiteSpace=wrap;html=1;" vertex="1" parent="1">
          <mxGeometry x="350" y="460" width="130" height="50" as="geometry" />
        </mxCell>
        <mxCell id="rZTTeqGJp5V0h66PrG5v-10" value="" style="endArrow=classic;dashed=1;html=1;dashPattern=1 3;strokeWidth=2;rounded=0;exitX=0.592;exitY=0;exitDx=0;exitDy=0;exitPerimeter=0;entryX=0.5;entryY=1;entryDx=0;entryDy=0;" edge="1" parent="1" source="rZTTeqGJp5V0h66PrG5v-9" target="rZTTeqGJp5V0h66PrG5v-1">
          <mxGeometry width="50" height="50" relative="1" as="geometry">
            <mxPoint x="321" y="150" as="sourcePoint" />
            <mxPoint x="475" y="395" as="targetPoint" />
          </mxGeometry>
        </mxCell>
        <mxCell id="rZTTeqGJp5V0h66PrG5v-11" value="&amp;lt;&amp;lt;includes&amp;gt;&amp;gt;" style="edgeLabel;html=1;align=center;verticalAlign=middle;resizable=0;points=[];" vertex="1" connectable="0" parent="rZTTeqGJp5V0h66PrG5v-10">
          <mxGeometry x="-0.0993" relative="1" as="geometry">
            <mxPoint as="offset" />
          </mxGeometry>
        </mxCell>
        <mxCell id="rZTTeqGJp5V0h66PrG5v-12" value="Cancel Fall Test" style="ellipse;whiteSpace=wrap;html=1;" vertex="1" parent="1">
          <mxGeometry x="40" y="580" width="130" height="50" as="geometry" />
        </mxCell>
        <mxCell id="rZTTeqGJp5V0h66PrG5v-13" value="" style="endArrow=classic;dashed=1;html=1;dashPattern=1 3;strokeWidth=2;rounded=0;exitX=1;exitY=0;exitDx=0;exitDy=0;entryX=0.227;entryY=0.917;entryDx=0;entryDy=0;entryPerimeter=0;" edge="1" parent="1" source="rZTTeqGJp5V0h66PrG5v-12" target="AsRyf3siZB244Y5WGXN8-2">
          <mxGeometry width="50" height="50" relative="1" as="geometry">
            <mxPoint x="321" y="150" as="sourcePoint" />
            <mxPoint x="328" y="528" as="targetPoint" />
          </mxGeometry>
        </mxCell>
        <mxCell id="rZTTeqGJp5V0h66PrG5v-14" value="&amp;lt;&amp;lt;includes&amp;gt;&amp;gt;" style="edgeLabel;html=1;align=center;verticalAlign=middle;resizable=0;points=[];" vertex="1" connectable="0" parent="rZTTeqGJp5V0h66PrG5v-13">
          <mxGeometry x="-0.0993" relative="1" as="geometry">
            <mxPoint as="offset" />
          </mxGeometry>
        </mxCell>
        <mxCell id="rZTTeqGJp5V0h66PrG5v-15" value="" style="endArrow=classic;html=1;rounded=0;exitX=1;exitY=0.3333333333333333;exitDx=0;exitDy=0;exitPerimeter=0;entryX=0.323;entryY=-0.06;entryDx=0;entryDy=0;entryPerimeter=0;" edge="1" parent="1" source="AsRyf3siZB244Y5WGXN8-1" target="rZTTeqGJp5V0h66PrG5v-12">
          <mxGeometry width="50" height="50" relative="1" as="geometry">
            <mxPoint x="50" y="137" as="sourcePoint" />
            <mxPoint x="286" y="549" as="targetPoint" />
          </mxGeometry>
        </mxCell>
        <mxCell id="rZTTeqGJp5V0h66PrG5v-16" value="" style="endArrow=classic;html=1;rounded=0;exitX=1;exitY=0.3333333333333333;exitDx=0;exitDy=0;exitPerimeter=0;entryX=0;entryY=0;entryDx=0;entryDy=0;" edge="1" parent="1" source="AsRyf3siZB244Y5WGXN8-1" target="rZTTeqGJp5V0h66PrG5v-9">
          <mxGeometry width="50" height="50" relative="1" as="geometry">
            <mxPoint x="60" y="147" as="sourcePoint" />
            <mxPoint x="296" y="559" as="targetPoint" />
          </mxGeometry>
        </mxCell>
        <mxCell id="rZTTeqGJp5V0h66PrG5v-18" value="" style="endArrow=classic;dashed=1;html=1;dashPattern=1 3;strokeWidth=2;rounded=0;exitX=0.4;exitY=-0.05;exitDx=0;exitDy=0;exitPerimeter=0;entryX=0.208;entryY=0.93;entryDx=0;entryDy=0;entryPerimeter=0;" edge="1" parent="1" source="AsRyf3siZB244Y5WGXN8-2" target="rZTTeqGJp5V0h66PrG5v-1">
          <mxGeometry width="50" height="50" relative="1" as="geometry">
            <mxPoint x="367" y="350" as="sourcePoint" />
            <mxPoint x="255" y="168" as="targetPoint" />
          </mxGeometry>
        </mxCell>
        <mxCell id="rZTTeqGJp5V0h66PrG5v-19" value="&amp;lt;&amp;lt;includes&amp;gt;&amp;gt;" style="edgeLabel;html=1;align=center;verticalAlign=middle;resizable=0;points=[];" vertex="1" connectable="0" parent="rZTTeqGJp5V0h66PrG5v-18">
          <mxGeometry x="-0.0993" relative="1" as="geometry">
            <mxPoint as="offset" />
          </mxGeometry>
        </mxCell>
        <mxCell id="rZTTeqGJp5V0h66PrG5v-22" value="" style="endArrow=classic;dashed=1;html=1;dashPattern=1 3;strokeWidth=2;rounded=0;exitX=0;exitY=0.5;exitDx=0;exitDy=0;entryX=1;entryY=0.5;entryDx=0;entryDy=0;" edge="1" parent="1" source="AsRyf3siZB244Y5WGXN8-67" target="AsRyf3siZB244Y5WGXN8-61">
          <mxGeometry width="50" height="50" relative="1" as="geometry">
            <mxPoint x="560" y="1106.5" as="sourcePoint" />
            <mxPoint x="380" y="1133.5" as="targetPoint" />
          </mxGeometry>
        </mxCell>
        <mxCell id="rZTTeqGJp5V0h66PrG5v-23" value="&amp;lt;&amp;lt;extends&amp;gt;&amp;gt;" style="edgeLabel;html=1;align=center;verticalAlign=middle;resizable=0;points=[];" vertex="1" connectable="0" parent="rZTTeqGJp5V0h66PrG5v-22">
          <mxGeometry x="-0.0993" relative="1" as="geometry">
            <mxPoint as="offset" />
          </mxGeometry>
        </mxCell>
        <mxCell id="rZTTeqGJp5V0h66PrG5v-24" value="Cancel Fall Alert when&amp;nbsp; fall detected" style="ellipse;whiteSpace=wrap;html=1;" vertex="1" parent="1">
          <mxGeometry x="100" y="470" width="130" height="50" as="geometry" />
        </mxCell>
        <mxCell id="rZTTeqGJp5V0h66PrG5v-25" value="" style="endArrow=classic;html=1;rounded=0;exitX=1;exitY=0.3333333333333333;exitDx=0;exitDy=0;exitPerimeter=0;entryX=0.309;entryY=0.086;entryDx=0;entryDy=0;entryPerimeter=0;" edge="1" parent="1" source="AsRyf3siZB244Y5WGXN8-1" target="rZTTeqGJp5V0h66PrG5v-24">
          <mxGeometry width="50" height="50" relative="1" as="geometry">
            <mxPoint x="50" y="137" as="sourcePoint" />
            <mxPoint x="286" y="549" as="targetPoint" />
          </mxGeometry>
        </mxCell>
      </root>
    </mxGraphModel>
  </diagram>
</mxfile>
